<?xml version="1.0" encoding="UTF-8" standalone="no"?>
<svg
   viewBox="-5.863718 -30.911867 17.971001 63.749002"
   version="1.1"
   id="svg380"
   xml:space="preserve"
   width="17.971001"
   height="63.749001"
   sodipodi:docname="completo_unified.svg"
   inkscape:version="1.2.2 (b0a8486541, 2022-12-01)"
   inkscape:export-filename="completo.png"
   inkscape:export-xdpi="96"
   inkscape:export-ydpi="96"
   xmlns:inkscape="http://www.inkscape.org/namespaces/inkscape"
   xmlns:sodipodi="http://sodipodi.sourceforge.net/DTD/sodipodi-0.dtd"
   xmlns="http://www.w3.org/2000/svg"
   xmlns:svg="http://www.w3.org/2000/svg"><sodipodi:namedview
     id="namedview88"
     pagecolor="#ffffff"
     bordercolor="#666666"
     borderopacity="1.0"
     inkscape:showpageshadow="2"
     inkscape:pageopacity="0.0"
     inkscape:pagecheckerboard="0"
     inkscape:deskcolor="#d1d1d1"
     showgrid="true"
     showguides="true"
     inkscape:zoom="84.318331"
     inkscape:cx="7.8571289"
     inkscape:cy="54.638178"
     inkscape:window-width="1920"
     inkscape:window-height="995"
     inkscape:window-x="0"
     inkscape:window-y="24"
     inkscape:window-maximized="1"
     inkscape:current-layer="svg380"><sodipodi:guide
       position="1.1677588,11.439139"
       orientation="0,-1"
       id="guide1022"
       inkscape:locked="false" /><sodipodi:guide
       position="2.0529571,8.2234263"
       orientation="0,-1"
       id="guide1024"
       inkscape:locked="false" /><inkscape:grid
       type="xygrid"
       id="grid1273"
       units="mm"
       spacingx="0.18897638"
       spacingy="0.18897638" /></sodipodi:namedview><defs
     id="defs384" /><path
     d="m -3.5960014,31.261362 v -6.425197 h -0.9448819 c -1e-6,0.01669 0,-2.267716 0,-3.401575 h 0.9448819 V 6.1275035 H -4.5408833 V 3.1038814 h 0.9448819 l -10e-8,-11.716536 -1.1338582,4e-7 v -3.2125988 h 1.1338582 l -4e-7,-17.007874 h 6.9921265 v 17.007874 h 1.1338583 v 3.2125988 H 3.3961246 v 4.15748 H 1.3173844 V 1.5920704 H 3.585101 v 1.511811 l 0.9448819,4e-7 V 6.1275035 H 3.585101 L 3.3961246,21.43459 l 0.9448819,0 v 0.944882 h 0.1889764 l 0,-0.944882 0.3779528,0 v -0.188976 l -1.3228347,0 0.1149253,-13.6300709 7.6306477,0.032241 0.0025,14.5427079 H 6.9866758 V 21.24561 l -0.9448819,4e-6 v 0.152381 l 0.7559056,-4e-6 10e-8,3.627147 -2.2677167,3e-6 V 23.891283 H 4.3410065 v 1.133858 l -0.7559055,10e-7 v 6.23622 z"
     fill="none"
     stroke="#000000"
     stroke-width="0.1"
     id="hall"
     style="fill:none;fill-opacity:1;stroke:#00ff00;stroke-width:0.2;stroke-dasharray:none;stroke-opacity:1"
     sodipodi:nodetypes="ccccccccccccccccccccccccccccccccccccccccccccccccccc" /></svg>
