<?xml version="1.0" encoding="UTF-8" standalone="no"?>
<svg
   viewBox="-5.863718 -30.911867 17.971001 63.749002"
   version="1.1"
   id="svg380"
   xml:space="preserve"
   width="17.971001"
   height="63.749001"
   xmlns="http://www.w3.org/2000/svg"
   xmlns:svg="http://www.w3.org/2000/svg"><defs
     id="defs384" /><path
     d="m -3.6197468,31.291198 -0.022407,-6.55435 -0.9018852,-0.0038 0.018972,-3.301771 0.9570023,-0.01722 -0.1367466,-15.206377 -0.95494,-5.5e-4 0.0073,-3.09178 0.99271,-0.0056 0.0053,-11.81437 -0.94648,-0.0052 0.00386,-3.016402 0.9395309,0.011 0.052058,-17.079685 6.7650279,-0.01 0.09716,17.0125 1.0253121,0.0045 0.00141,3.0991548 -1.0248669,0.00844 0.026209,4.2466381 -1.9445643,-0.010966 0.01895,6.153219 1.97496,-0.01594 -0.0042,1.4501246 0.9664987,-0.00337 0.1336839,3.1770184 -0.9529301,-0.00329 0.03058,15.0128431 0.985926,0.02721 -0.041148,3.367736 -0.97451,-0.0026 0.023285,6.566282 z"
     fill="none"
     stroke="#000000"
     stroke-width="0.1"
     id="hall"
     style="stroke:#00ff00;stroke-width:0.2;stroke-dasharray:none;stroke-opacity:1" /><g
     id="g7124"
     transform="matrix(2.7774242,1.1499137,-1.1061144,3.0561948,20.689625,36.527071)"><g
       style="opacity:0.3"
       id="g7074"><line
         x1="-8"
         y1="-4.7410002"
         x2="-8"
         y2="-1.143"
         stroke="#cccccc"
         stroke-width="0.01"
         id="line7050" /><line
         x1="-7"
         y1="-4.7410002"
         x2="-7"
         y2="-1.143"
         stroke="#cccccc"
         stroke-width="0.01"
         id="line7052" /><line
         x1="-6"
         y1="-4.7410002"
         x2="-6"
         y2="-1.143"
         stroke="#cccccc"
         stroke-width="0.01"
         id="line7054" /><line
         x1="-5"
         y1="-4.7410002"
         x2="-5"
         y2="-1.143"
         stroke="#cccccc"
         stroke-width="0.01"
         id="line7056" /><line
         x1="-4"
         y1="-4.7410002"
         x2="-4"
         y2="-1.143"
         stroke="#cccccc"
         stroke-width="0.01"
         id="line7058" /><line
         x1="-3"
         y1="-4.7410002"
         x2="-3"
         y2="-1.143"
         stroke="#cccccc"
         stroke-width="0.01"
         id="line7060" /><line
         x1="-2"
         y1="-4.7410002"
         x2="-2"
         y2="-1.143"
         stroke="#cccccc"
         stroke-width="0.01"
         id="line7062" /><line
         x1="-7.48"
         y1="-1"
         x2="-2.642"
         y2="-1"
         stroke="#cccccc"
         stroke-width="0.01"
         id="line7064" /><line
         x1="-7.48"
         y1="-2"
         x2="-2.642"
         y2="-2"
         stroke="#cccccc"
         stroke-width="0.01"
         id="line7066" /><line
         x1="-7.48"
         y1="-3"
         x2="-2.642"
         y2="-3"
         stroke="#cccccc"
         stroke-width="0.01"
         id="line7068" /><line
         x1="-7.48"
         y1="-4"
         x2="-2.642"
         y2="-4"
         stroke="#cccccc"
         stroke-width="0.01"
         id="line7070" /><line
         x1="-7.48"
         y1="-5"
         x2="-2.642"
         y2="-5"
         stroke="#cccccc"
         stroke-width="0.01"
         id="line7072" /></g><path
       id="chema"
       style="fill:none;stroke:#ff00ff;stroke-width:0.0519892;stroke-linejoin:round;stroke-dasharray:none"
       d="m -6.7891816,-2.3921832 0.5053779,1.2824704 0.6576024,-0.2456097 -0.5217177,-1.2869312 z" /><path
       id="beta"
       style="fill:none;stroke:#0040ff;stroke-width:0.0456435;stroke-linejoin:round;stroke-dasharray:none;stroke-opacity:1"
       d="m -5.9382572,-2.1545174 1.5009591,-0.5631638 -1.6377847,-4.1070642 -2.471878,0.9276291 1.442841,3.5994619 0.9655432,-0.3564386 z" /><ellipse
       cx="-216.87106"
       cy="-123.09892"
       fill="#ffff00"
       stroke="#000000"
       stroke-width="0.320117"
       id="circle12901"
       transform="matrix(0.93594192,-0.3521544,0.3699902,0.92903566,0,0)"
       rx="2.6764529"
       ry="2.4504018" /><ellipse
       cx="-216.13504"
       cy="-30.973"
       fill="#ffff00"
       stroke="#000000"
       stroke-width="0.320117"
       id="circle12903"
       transform="matrix(0.93594192,-0.3521544,0.3699902,0.92903566,0,0)"
       rx="2.6764529"
       ry="2.4504018" /><ellipse
       cx="-247.71718"
       cy="-30.299139"
       fill="#ffff00"
       stroke="#000000"
       stroke-width="0.320117"
       id="circle12905"
       transform="matrix(0.93594192,-0.3521544,0.3699902,0.92903566,0,0)"
       rx="2.6764529"
       ry="2.4504018" /><ellipse
       cx="-244.03706"
       cy="114.95762"
       fill="#ffff00"
       stroke="#000000"
       stroke-width="0.320117"
       id="circle12907"
       transform="matrix(0.93594192,-0.3521544,0.3699902,0.92903566,0,0)"
       rx="2.6764529"
       ry="2.4504018" /><ellipse
       cx="234.88072"
       cy="114.95762"
       fill="#ffff00"
       stroke="#000000"
       stroke-width="0.320117"
       id="circle12909"
       transform="matrix(0.93594192,-0.3521544,0.3699902,0.92903566,0,0)"
       rx="2.6764529"
       ry="2.4504018" /><ellipse
       cx="235.61674"
       cy="114.95762"
       fill="#ffff00"
       stroke="#000000"
       stroke-width="0.320117"
       id="circle12911"
       transform="matrix(0.93594192,-0.3521544,0.3699902,0.92903566,0,0)"
       rx="2.6764529"
       ry="2.4504018" /><ellipse
       cx="237.79137"
       cy="-124.44663"
       fill="#ffff00"
       stroke="#000000"
       stroke-width="0.320117"
       id="circle12913"
       transform="matrix(0.93594192,-0.3521544,0.3699902,0.92903566,0,0)"
       rx="2.6764529"
       ry="2.4504018" /></g></svg>
