<?xml version="1.0" encoding="UTF-8" standalone="no"?>
<svg
   viewBox="-5.863718 -30.911867 17.971001 63.749002"
   version="1.1"
   id="svg380"
   xml:space="preserve"
   width="17.971001"
   height="63.749001"
   sodipodi:docname="completo_unified.svg"
   inkscape:version="1.2.2 (b0a8486541, 2022-12-01)"
   inkscape:export-filename="completo.png"
   inkscape:export-xdpi="96"
   inkscape:export-ydpi="96"
   xmlns:inkscape="http://www.inkscape.org/namespaces/inkscape"
   xmlns:sodipodi="http://sodipodi.sourceforge.net/DTD/sodipodi-0.dtd"
   xmlns="http://www.w3.org/2000/svg"
   xmlns:svg="http://www.w3.org/2000/svg"><sodipodi:namedview
     id="namedview88"
     pagecolor="#ffffff"
     bordercolor="#666666"
     borderopacity="1.0"
     inkscape:showpageshadow="2"
     inkscape:pageopacity="0.0"
     inkscape:pagecheckerboard="0"
     inkscape:deskcolor="#d1d1d1"
     showgrid="true"
     showguides="true"
     inkscape:zoom="93.751191"
     inkscape:cx="4.7039402"
     inkscape:cy="39.88216"
     inkscape:window-width="940"
     inkscape:window-height="989"
     inkscape:window-x="2884"
     inkscape:window-y="59"
     inkscape:window-maximized="0"
     inkscape:current-layer="layer1"><sodipodi:guide
       position="6.2362207,11.402544"
       orientation="0,-1"
       id="guide1022"
       inkscape:locked="false" /><sodipodi:guide
       position="2.0529571,8.2234263"
       orientation="0,-1"
       id="guide1024"
       inkscape:locked="false" /><inkscape:grid
       type="xygrid"
       id="grid1273"
       units="mm"
       spacingx="0.11338583"
       spacingy="0.11338583" /></sodipodi:namedview><defs
     id="defs384" /><path
     d="m -3.5015339,31.261366 v -6.425197 h -0.9448819 c -1e-6,0.01669 0,-2.267716 0,-3.401575 h 0.9448819 V 6.1275073 H -4.4464158 V 3.1038852 h 0.9448819 l -10e-8,-11.716536 -1.1338582,4e-7 v -3.2125986 h 1.1338582 l -4e-7,-17.007874 h 6.9921265 v 17.007874 h 1.1338583 v 3.2125986 H 3.4905921 v 4.15748 H 1.4118519 v 6.0472446 h 2.2677166 v 1.511811 l 0.9448819,4e-7 V 6.1275073 H 3.3016157 V 21.623571 H 4.435474 v 0.7559 h 0.1889764 v -0.7559 H 5.1913795 V 21.397999 H 3.6795685 V 7.6393183 l 7.7455725,0.00847 0.0025,14.5427077 H 7.0811433 v -0.792492 l -0.7559055,-5e-6 v 0.225572 l 0.5669292,5e-6 1e-7,3.401571 -2.2677167,3e-6 V 23.891287 H 4.435474 v 1.133858 l -0.7559055,1e-6 v 6.23622 z"
     fill="none"
     stroke="#000000"
     stroke-width="0.1"
     id="hall"
     style="fill:none;fill-opacity:1;stroke:#00ff00;stroke-width:0.2;stroke-dasharray:none;stroke-opacity:1"
     sodipodi:nodetypes="ccccccccccccccccccccccccccccccccccccccccccccccccccc"
     inkscape:label="Room Polygon" /><g
     inkscape:groupmode="layer"
     id="layer1"
     inkscape:label="Furniture"><path
       id="rect3529"
       style="fill:none;stroke:#0040ff;stroke-width:0.169353"
       inkscape:label="mesa 1 beta"
       d="m 6.8052063,19.062573 h 3.4983677 v 1.345129 H 6.8052063 Z"
       sodipodi:nodetypes="ccccc" /><path
       id="rect3529-6"
       style="fill:none;stroke:#0040ff;stroke-width:0.17761"
       inkscape:label="mesa 2 beta"
       d="m 6.8398058,15.916481 h 3.3929532 v 1.52546 H 6.8398058 Z"
       sodipodi:nodetypes="ccccc" /><path
       id="rect3529-6-5"
       style="fill:none;stroke:#0040ff;stroke-width:0.178925"
       inkscape:label="mesa 3 beta"
       d="m 6.840463,12.666966 h 3.391639 v 1.548727 H 6.840463 Z"
       sodipodi:nodetypes="ccccc" /><path
       id="rect3529-6-5-0"
       style="fill:none;stroke:#0040ff;stroke-width:0.0646945"
       inkscape:label="mesa 2 hall"
       d="m 1.9599043,10.469144 h 1.1910576 v 0.576563 H 1.9599043 Z"
       sodipodi:nodetypes="ccccc" /><path
       id="rect3529-6-5-0-9"
       style="fill:none;stroke:#0040ff;stroke-width:0.0887003"
       inkscape:label="mesa 3 hall"
       d="m -3.3218867,8.2437563 h 1.3132869 v 0.9829605 h -1.3132869 z"
       sodipodi:nodetypes="ccccc" /><path
       id="rect3529-6-5-0-9-9"
       style="fill:none;stroke:#0040ff;stroke-width:0.0613531"
       inkscape:label="mesa 5 hall"
       d="m -3.3328604,-6.7606852 h 1.0611197 v 0.582041 h -1.0611197 z"
       sodipodi:nodetypes="ccccc" /><path
       id="rect3529-6-3"
       style="fill:none;stroke:#0040ff;stroke-width:0.247075"
       inkscape:label="mesa 4 beta"
       d="M 5.6869461,8.7783178 H 10.369457 V 10.917353 H 5.6869461 Z"
       sodipodi:nodetypes="ccccc" /><path
       id="rect3529-6-7"
       style="fill:none;stroke:#0040ff;stroke-width:0.1254"
       inkscape:label="mesa 1 hall"
       d="m 2.103151,16.370024 h 1.0741366 v 2.401992 H 2.103151 Z"
       sodipodi:nodetypes="ccccc" /><path
       id="rect3529-6-7-2"
       style="fill:none;stroke:#0040ff;stroke-width:0.0761603"
       inkscape:label="mesa 4 hall"
       d="m -3.2996326,-0.41107873 h 0.7678923 v 1.239347 h -0.7678923 z"
       sodipodi:nodetypes="ccccc" /><path
       id="rect3529-6-7-2-0"
       style="fill:none;stroke:#0040ff;stroke-width:0.0761603"
       inkscape:label="mesa 6 hall"
       d="m 2.5964306,-14.24415 h 0.7678923 v 1.239346 H 2.5964306 Z"
       sodipodi:nodetypes="ccccc" /><path
       id="rect3529-6-7-2-0-3"
       style="fill:none;stroke:#0040ff;stroke-width:0.0761603"
       inkscape:label="mesa 6 hall"
       d="m 2.5964306,-14.24415 h 0.7678923 v 1.239346 H 2.5964306 Z"
       sodipodi:nodetypes="ccccc" /><path
       id="rect3529-6-7-2-0-3-2"
       style="fill:none;stroke:#0040ff;stroke-width:0.0761603"
       inkscape:label="mesa 6 hall"
       d="m 2.5964306,-14.24415 h 0.7678923 v 1.239346 H 2.5964306 Z"
       sodipodi:nodetypes="ccccc" /><path
       id="rect3529-6-7-2-7"
       style="fill:none;stroke:#0040ff;stroke-width:0.107233"
       inkscape:label="mesa 9 hall"
       d="m -3.3825279,-20.91363 h 0.9336829 v 2.020661 h -0.9336829 z"
       sodipodi:nodetypes="ccccc" /><path
       id="rect3529-6-7-2-7-6"
       style="fill:none;stroke:#0040ff;stroke-width:0.0574609"
       inkscape:label="mesa 7 hall"
       d="m -3.4165126,-15.60478 h 0.5481091 v 0.988354 h -0.5481091 z"
       sodipodi:nodetypes="ccccc" /><path
       id="rect3847"
       style="fill:none;stroke:#4c6700;stroke-width:0.149"
       inkscape:label="maceta 1"
       d="M -0.38340428,20.867661 H 0.1835275 c 0.10469219,0 0.18897507,0.08428 0.18897507,0.188975 v 0.377955 c 0,0.104692 -0.0842829,0.188975 -0.18897507,0.188975 h -0.56693178 c -0.10469219,0 -0.18897507,-0.08428 -0.18897507,-0.188975 v -0.377955 c 0,-0.104693 0.0842829,-0.188975 0.18897507,-0.188975 z" /><path
       id="rect3847-5"
       style="fill:none;stroke:#4c6700;stroke-width:0.149"
       inkscape:label="maceta 2"
       d="m -0.25112073,17.314907 h 0.56693178 c 0.10469219,0 0.18897507,0.08428 0.18897507,0.188975 v 0.377955 c 0,0.104692 -0.0842829,0.188975 -0.18897507,0.188975 h -0.56693178 c -0.10469219,0 -0.18897507,-0.08428 -0.18897507,-0.188975 v -0.377955 c 0,-0.104693 0.0842829,-0.188975 0.18897507,-0.188975 z" /><path
       id="rect3847-6"
       style="fill:none;stroke:#4c6700;stroke-width:0.149"
       inkscape:label="maceta 3"
       d="m -0.30781496,14.820418 h 0.56693178 c 0.10469219,0 0.18897507,0.08428 0.18897507,0.188975 v 0.377955 c 0,0.104692 -0.0842829,0.188975 -0.18897507,0.188975 h -0.56693178 c -0.10469222,0 -0.18897502,-0.08428 -0.18897502,-0.188975 v -0.377955 c 0,-0.104693 0.084283,-0.188975 0.18897502,-0.188975 z" /><path
       id="rect3847-2"
       style="fill:none;stroke:#4c6700;stroke-width:0.149"
       inkscape:label="maceta 4"
       d="m -0.25112074,11.985773 h 0.5669318 c 0.10469225,0 0.18897515,0.08428 0.18897515,0.188975 v 0.377955 c 0,0.104692 -0.084283,0.188975 -0.18897515,0.188975 h -0.5669318 c -0.1046922,0 -0.1889751,-0.08428 -0.1889751,-0.188975 v -0.377955 c 0,-0.104693 0.084283,-0.188975 0.1889751,-0.188975 z" /><path
       id="rect3847-9"
       style="fill:none;stroke:#4c6700;stroke-width:0.149"
       inkscape:label="maceta 5"
       d="m -0.30781233,7.8660869 h 0.5669318 c 0.1046922,0 0.1889751,0.08428 0.1889751,0.1889749 v 0.377955 c 0,0.104692 -0.084283,0.188975 -0.1889751,0.188975 h -0.5669318 c -0.10469219,0 -0.18897507,-0.08428 -0.18897507,-0.188975 v -0.377955 c 0,-0.1046929 0.0842829,-0.1889749 0.18897507,-0.1889749 z" /><path
       id="rect3847-1"
       style="fill:none;stroke:#4c6700;stroke-width:0.149"
       inkscape:label="maceta 6"
       d="m -0.59127822,1.667662 h 0.56693178 c 0.10469219,0 0.18897507,0.08428 0.18897507,0.188975 v 0.377955 c 0,0.104692 -0.0842829,0.188975 -0.18897507,0.188975 h -0.56693178 c -0.10469222,0 -0.18897502,-0.08428 -0.18897502,-0.188975 V 1.856637 c 0,-0.104693 0.084283,-0.188975 0.18897502,-0.188975 z" /><path
       id="rect3847-1-3"
       style="fill:none;stroke:#4c6700;stroke-width:0.149"
       inkscape:label="maceta 7"
       d="m -0.76135824,-4.9465119 h 0.56693174 c 0.10469219,0 0.18897507,0.08428 0.18897507,0.188975 v 0.377955 c 0,0.104692 -0.0842829,0.188975 -0.18897507,0.188975 h -0.56693174 c -0.1046923,0 -0.1889751,-0.08428 -0.1889751,-0.188975 v -0.377955 c 0,-0.104693 0.084283,-0.188975 0.1889751,-0.188975 z" /><path
       id="rect3847-1-6"
       style="fill:none;stroke:#4c6700;stroke-width:0.149"
       inkscape:label="maceta 8"
       d="m -0.42120081,-8.3102911 h 0.5669318 c 0.1046922,0 0.1889751,0.08428 0.1889751,0.188975 v 0.377955 c 0,0.104692 -0.084283,0.1889751 -0.1889751,0.1889751 h -0.5669318 c -0.1046922,0 -0.188975,-0.08428 -0.188975,-0.1889751 v -0.377955 c 0,-0.104693 0.084283,-0.188975 0.188975,-0.188975 z" /><path
       id="rect3847-1-6-0"
       style="fill:none;stroke:#4c6700;stroke-width:0.149"
       inkscape:label="maceta 9"
       d="m -0.30781498,-12.392181 h 0.5669318 c 0.1046922,0 0.1889751,0.08428 0.1889751,0.188975 v 0.377955 c 0,0.104692 -0.084283,0.188975 -0.1889751,0.188975 h -0.5669318 c -0.1046922,0 -0.188975,-0.08428 -0.188975,-0.188975 v -0.377955 c 0,-0.104693 0.084283,-0.188975 0.188975,-0.188975 z" /><path
       id="rect3847-1-6-0-6"
       style="fill:none;stroke:#4c6700;stroke-width:0.149"
       inkscape:label="maceta 10"
       d="m -0.27001842,-15.642575 h 0.5669318 c 0.1046922,0 0.1889751,0.08428 0.1889751,0.188975 v 0.377955 c 0,0.104692 -0.084283,0.188975 -0.1889751,0.188975 h -0.5669318 c -0.1046922,0 -0.188975,-0.08428 -0.188975,-0.188975 V -15.4536 c 0,-0.104693 0.084283,-0.188975 0.188975,-0.188975 z" /><path
       id="rect3847-1-6-0-6-6"
       style="fill:none;stroke:#4c6700;stroke-width:0.149"
       inkscape:label="maceta 11"
       d="m -0.42120081,-18.892969 h 0.5669318 c 0.1046922,0 0.1889751,0.08428 0.1889751,0.188975 v 0.377955 c 0,0.104692 -0.084283,0.188975 -0.1889751,0.188975 h -0.5669318 c -0.1046922,0 -0.188975,-0.08428 -0.188975,-0.188975 v -0.377955 c 0,-0.104693 0.084283,-0.188975 0.188975,-0.188975 z" /><path
       id="rect3847-1-6-0-6-1"
       style="fill:none;stroke:#4c6700;stroke-width:0.149"
       inkscape:label="maceta 12"
       d="m -0.30781233,-22.710291 h 0.5669318 c 0.1046922,0 0.1889751,0.08428 0.1889751,0.188975 v 0.377955 c 0,0.104692 -0.084283,0.188975 -0.1889751,0.188975 h -0.5669318 c -0.1046922,0 -0.188975,-0.08428 -0.188975,-0.188975 v -0.377955 c 0,-0.104693 0.084283,-0.188975 0.188975,-0.188975 z" /><path
       id="rect8193"
       style="fill:none;stroke:#003067;stroke-width:0.213484"
       d="m -0.6479698,3.7235781 h 0.99890447 c 0,0 0,0.098198 0,0.2201739 v 1.5412324 c 0,0.1219764 0,0.220174 0,0.220174 H -0.6479698 c 0,0 -2e-8,-0.098198 -2e-8,-0.220174 V 3.943752 c 0,-0.1219764 2e-8,-0.2201739 2e-8,-0.2201739 z"
       inkscape:label="banco 1 hall" /><path
       id="rect8193-2"
       style="fill:none;stroke:#003067;stroke-width:0.213484"
       d="m -0.58049289,-11.123368 h 0.99890443 c 0,0 0,0.0982 0,0.220174 v 1.5412324 c 0,0.1219764 0,0.220174 0,0.220174 h -0.99890443 c 0,0 -2e-8,-0.098198 -2e-8,-0.220174 v -1.5412324 c 0,-0.121976 2e-8,-0.220174 2e-8,-0.220174 z"
       inkscape:label="banco 2 hall" /><path
       id="rect8193-2-8"
       style="fill:none;stroke:#003067;stroke-width:0.155914"
       d="m -0.48541196,-21.499049 h 0.51775712 c 0,0 0,0.101053 0,0.226571 v 1.586009 c 0,0.12552 0,0.226571 0,0.226571 h -0.51775712 c 0,0 -1e-8,-0.101053 -1e-8,-0.226571 v -1.586009 c 0,-0.12552 1e-8,-0.226571 1e-8,-0.226571 z"
       inkscape:label="banco 4 hall" /><path
       id="rect8193-2-8-23"
       style="fill:none;stroke:#003067;stroke-width:0.155914"
       d="m 2.7214982,-17.303773 h 0.5177571 c 0,0 0,0.101053 0,0.226571 v 1.586009 c 0,0.12552 0,0.226571 0,0.226571 H 2.7214982 c 0,0 0,-0.101053 0,-0.226571 v -1.586009 c 0,-0.12552 0,-0.226571 0,-0.226571 z"
       inkscape:label="banco 3 hall" /><path
       id="rect8193-2-8-23-5"
       style="fill:none;stroke:#003067;stroke-width:0.155914"
       d="m 2.7214982,-17.303773 h 0.5177571 c 0,0 0,0.101053 0,0.226571 v 1.586009 c 0,0.12552 0,0.226571 0,0.226571 H 2.7214982 c 0,0 0,-0.101053 0,-0.226571 v -1.586009 c 0,-0.12552 0,-0.226571 0,-0.226571 z"
       inkscape:label="banco 3 hall" /><path
       id="rect8193-2-8-23-56"
       style="fill:none;stroke:#003067;stroke-width:0.155914"
       d="m 2.6893913,-21.614229 h 0.5177571 c 0,0 0,0.101053 0,0.226571 v 1.586009 c 0,0.12552 0,0.226571 0,0.226571 H 2.6893913 c 0,0 0,-0.101053 0,-0.226571 v -1.586009 c 0,-0.12552 0,-0.226571 0,-0.226571 z"
       inkscape:label="banco 3 hall" /><path
       id="rect8193-2-8-2"
       style="fill:none;stroke:#003067;stroke-width:0.143851"
       d="m -2.976306,-28.190607 v -0.453543 c 0,0 0.0982,0 0.220174,0 h 1.541233 c 0.121976,0 0.22017403,0 0.22017403,0 v 0.453543 c 0,0 -0.0982,0 -0.22017403,0 h -1.541233 c -0.121976,0 -0.220174,0 -0.220174,0 z"
       inkscape:label="banco 5 hall" /><path
       id="rect3529-6-7-2-0-6"
       style="fill:none;stroke:#0040ff;stroke-width:0.056427"
       inkscape:label="mesa 8 hall"
       d="m 2.5268334,-18.439426 h 0.7678923 v 0.680315 H 2.5268334 Z"
       sodipodi:nodetypes="ccccc" /><path
       id="rect3529-6-7-2-0-3-9"
       style="fill:none;stroke:#0040ff;stroke-width:0.0829139"
       inkscape:label="mesa 10 hall"
       d="m 2.5998074,-24.456785 h 0.7611387 v 1.481926 H 2.5998074 Z"
       sodipodi:nodetypes="ccccc" /><path
       id="rect552"
       style="fill:#d0bfee;stroke:#880088;stroke-width:0.160018"
       d="m -0.34118925,-14.482158 h 0.86045498 c 1e-8,0 1e-8,0.128094 1e-8,0.287209 v 1.148841 c 0,0.159114 0,0.287208 -1e-8,0.287208 h -0.86045498 c 0,0 0,-0.128094 0,-0.287208 v -1.148841 c 0,-0.159115 0,-0.287209 0,-0.287209 z"
       inkscape:label="vitrina 1" /><path
       id="rect552-3"
       style="fill:#d0bfee;stroke:#880088;stroke-width:0.158531"
       d="m -0.34193284,-17.759637 h 0.85049111 c 0,0 0,0.127197 0,0.285198 v 1.140802 c 0,0.157999 0,0.285196 0,0.285196 h -0.85049111 c 0,0 0,-0.127197 0,-0.285196 v -1.140802 c 0,-0.158001 0,-0.285198 0,-0.285198 z"
       inkscape:label="vitrina 1" /></g></svg>
