<?xml version="1.0" encoding="UTF-8" standalone="no"?>
<svg
   viewBox="-5.863718 -30.911867 11.970622 61.749441"
   version="1.1"
   id="svg380"
   xmlns="http://www.w3.org/2000/svg"
   xmlns:svg="http://www.w3.org/2000/svg">
  <defs
     id="defs384" />
  <path
     d="M -3.98886 30 L 3.13885 29.9973 L 3.09941 23.8177 L 4.02373 23.8134 L 4.00947 21.2341 L 3.01114 21.2265 L 3.0562 5 L 4.01114 4.99945 L 4.00385 1.90767 L 3.01114 1.90211 L 3.00581 -9.91226 L 3.95229 -9.91745 L 3.95878 -29.9894 L -3.8082 -30.0125 L -3.90536 -13 L -4.73749 -13.0027 L -4.76853 -9.91897 L -3.98886 -9.89289 L -4.00821 -5.68477 L -1.98886 -5.65226 L -2.00781 0.500959 L -3.98277 0.485014 L -3.9996 2.51257 L -4.98886 2.50403 L -4.99306 5.31577 L -3.98886 5.27867 L -4.05393 21.2304 L -4.95152 21.2487 L -4.95326 23.8081 L -4.03483 23.8206 L -3.98886 30"
     fill="none"
     stroke="#000000"
     stroke-width="0.1"
     id="path378"
     style="stroke:#00ff00;stroke-width:0.2;stroke-dasharray:none;stroke-opacity:1" />
</svg>
