<?xml version="1.0" encoding="UTF-8" standalone="no"?>
<svg
   viewBox="-5.863718 -30.911867 11.970622 61.749441"
   version="1.1"
   id="svg380"
   xmlns="http://www.w3.org/2000/svg"
   xmlns:svg="http://www.w3.org/2000/svg">
  <defs
     id="defs384" />
  <path
     d="m -3.9888634,30 7.1277112,-0.0027 -0.03944,-6.179604 0.924318,-0.0043 L 4.0094666,21.2341 3.0111366,21.2265 3.0561966,5 l 0.95494,-5.5e-4 -0.00729,-3.09178 -0.99271,-0.00556 c 0,0 0.06618,-12.21991 -0.00533,-11.81437 l 0.9464811,-0.00519 0.00649,-20.0719669 -7.7669779,-0.02309 -0.09716,17.0125 -0.83213,-0.0027 -0.03104,3.08374 0.77967,0.02608 -0.01935,4.20812 2.01935,0.03251 -0.01895,6.153216 -1.97496,-0.015945 -0.01683,2.027559 -0.98926,-0.00854 -0.0042,2.81174 1.0042,-0.0371 -0.06507,15.95172 -0.89759,0.0183 -0.00174,2.559438 0.9184345,0.01245 z"
     fill="none"
     stroke="#000000"
     stroke-width="0.1"
     id="path378"
     style="stroke:#00ff00;stroke-width:0.2;stroke-dasharray:none;stroke-opacity:1" />
</svg>
